<svg xmlns="http://www.w3.org/2000/svg" width="512" height="512" style="shape-rendering:geometricPrecision;text-rendering:geometricPrecision;image-rendering:optimizeQuality;fill-rule:evenodd;clip-rule:evenodd"><path style="opacity:.992" fill="#fe9738" d="M206.5-.5h64c-60.41 9.235-103.577 41.569-129.5 97-8.747 21.148-12.747 43.148-12 66 4.234 21.065 16.734 34.065 37.5 39-21.669.167-43.336 0-65-.5-18.583-4.037-30.416-15.204-35.5-33.5C64.447 95.418 95.947 43.584 160.5 12c14.955-6.07 30.288-10.236 46-12.5z"/><path style="opacity:1" fill="#fec244" d="M270.5-.5h34c-44.302 8.121-80.135 30.121-107.5 66-21.199 29.936-30.865 63.269-29 100 3.524 13.998 11.357 24.664 23.5 32-7.966 3.36-16.299 4.693-25 4-20.766-4.935-33.266-17.935-37.5-39-.747-22.852 3.253-44.852 12-66 25.923-55.431 69.09-87.765 129.5-97z"/><path style="opacity:.993" fill="#ffd05a" d="M304.5-.5h1c63.516 10.35 107.35 45.35 131.5 105 18.118 58.74 7.785 111.74-31 159-19.991 21.166-43.658 36.833-71 47a15.39 15.39 0 0 0-3 6l-1 27c-2.171 15.983-10.337 27.65-24.5 35-12.724-7.423-20.557-18.423-23.5-33-6.176-39.805 4.991-73.638 33.5-101.5a238.932 238.932 0 0 1 17-12l29-13c31.946-22.918 41.446-53.084 28.5-90.5-18.701-33.93-47.201-47.264-85.5-40-14.91-3.29-29.577-2.456-44 2.5-2.227.941-4.227 2.108-6 3.5-16.99 9.16-28.824 22.827-35.5 41a2765.591 2765.591 0 0 1-7 40c-4.661 9.827-11.827 17.16-21.5 22-12.143-7.336-19.976-18.002-23.5-32-1.865-36.731 7.801-70.064 29-100 27.365-35.879 63.198-57.879 107.5-66z"/><path style="opacity:.993" fill="#fe9738" d="M305.5 88.5c36.168 12.707 53.668 38.374 52.5 77-3.103 23.402-14.603 41.235-34.5 53.5-61.042 22.217-87.209 65.717-78.5 130.5 5.196 17.698 16.696 28.698 34.5 33-21.336.167-42.669 0-64-.5-20.952-4.952-32.785-18.119-35.5-39.5-4.456-34.275 4.211-64.609 26-91 14.343-14.93 31.51-25.43 51.5-31.5 32.544-20.952 43.377-50.119 32.5-87.5-7.161-16.659-18.661-29.325-34.5-38 1.773-1.392 3.773-2.559 6-3.5 14.423-4.956 29.09-5.79 44-2.5z"/><path style="opacity:1" fill="#fec244" d="M306.5 378.5c-8.621 3.522-17.621 4.856-27 4-17.804-4.302-29.304-15.302-34.5-33-8.709-64.783 17.458-108.283 78.5-130.5 19.897-12.265 31.397-30.098 34.5-53.5 1.168-38.626-16.332-64.293-52.5-77 38.299-7.264 66.799 6.07 85.5 40 12.946 37.416 3.446 67.582-28.5 90.5l-29 13a238.932 238.932 0 0 0-17 12c-28.509 27.862-39.676 61.695-33.5 101.5 2.943 14.577 10.776 25.577 23.5 33z"/><path style="opacity:.985" fill="#fe9737" d="M283.5 423.5c-31.181 7.681-43.681 27.348-37.5 59 6.128 15.637 17.295 25.304 33.5 29h-65c-29.317-10.38-39.817-30.713-31.5-61 6.243-13.247 16.41-21.747 30.5-25.5a871.76 871.76 0 0 1 70-1.5z"/><path style="opacity:1" fill="#fec244" d="M283.5 423.5c8.189-.141 15.856 1.525 23 5-24.649 15.58-30.482 36.58-17.5 63 4.779 6.618 10.613 11.952 17.5 16a96.02 96.02 0 0 1-10 4h-17c-16.205-3.696-27.372-13.363-33.5-29-6.181-31.652 6.319-51.319 37.5-59z"/><path style="opacity:.985" fill="#ffd15a" d="M306.5 428.5c21.4 11.997 28.9 29.997 22.5 54-4.18 11.345-11.68 19.679-22.5 25-6.887-4.048-12.721-9.382-17.5-16-12.982-26.42-7.149-47.42 17.5-63z"/></svg>